# xmcd
# 
# Track frame offsets:
#     150
#     17540
#     40758
#     58080
#     75095
#     94912
#     124665
#     148815
#     167477
#     187166
#     206719
#     231453
#     255573
#     273344
# 
# Disc length: 4096
# 
# Revision: 1
# Processed by: cddbd v1.5.2PL0 Copyright (c) Steve Scherf et al.
# Submitted via: fre:ac v1.1beta1pre5
# 
DISCID=bf0ffe0e
DTITLE=Steve Hill - The One-Man Blues Rock Band
DYEAR=2018
DGENRE=Blues Rock
TTITLE0=Rhythm All Over
TTITLE1=Go On
TTITLE2=The Collector
TTITLE3=Damned
TTITLE4=Tough Luck
TTITLE5=Never Is Such A Long Time
TTITLE6=Hate To See You Go
TTITLE7=Emily
TTITLE8=Nothing New
TTITLE9=Out Of Phase
TTITLE10=Still Got It Bad
TTITLE11=The Ballad Of Johnny Wabo
TTITLE12=Dangerous
TTITLE13=Voodoo Child (Slight Return)
EXTD=
EXTT0=
EXTT1=
EXTT2=
EXTT3=
EXTT4=
EXTT5=
EXTT6=
EXTT7=
EXTT8=
EXTT9=
EXTT10=
EXTT11=
EXTT12=
EXTT13=
PLAYORDER=
